<?xml version="1.0" standalone="no"?>
<!DOCTYPE svg PUBLIC "-//W3C//DTD SVG 20010904//EN"
 "http://www.w3.org/TR/2001/REC-SVG-20010904/DTD/svg10.dtd">
<svg version="1.0" xmlns="http://www.w3.org/2000/svg"
 width="260.000000pt" height="260.000000pt" viewBox="0 0 260.000000 260.000000"
 preserveAspectRatio="xMidYMid meet">
<metadata>
Created by potrace 1.11, written by Peter Selinger 2001-2013
</metadata>
<g transform="translate(0.000000,260.000000) scale(0.100000,-0.100000)"
fill="#000000" stroke="none">
<path d="M1090 2505 c-273 -50 -467 -151 -660 -345 -199 -198 -302 -403 -350
-688 -25 -154 -25 -200 0 -354 45 -269 146 -477 323 -664 142 -150 324 -267
512 -327 92 -30 302 -67 380 -67 78 0 288 37 380 67 565 184 933 781 832 1353
-47 273 -159 492 -347 681 -193 194 -406 301 -696 350 -144 24 -216 23 -374
-6z m728 -602 c6 -49 14 -125 18 -170 l7 -83 -70 0 -71 0 -7 36 c-3 20 -15 65
-26 100 -29 93 -33 94 -281 94 l-203 0 -3 -265 -3 -265 133 0 c73 0 143 3 156
6 26 7 52 51 52 89 0 24 2 25 60 25 l60 0 0 -175 0 -175 -60 0 c-52 0 -60 3
-60 19 0 42 -22 80 -52 90 -17 6 -89 11 -159 11 l-129 0 0 -207 c0 -115 5
-225 11 -246 16 -58 45 -71 171 -76 l108 -3 0 -54 0 -54 -324 0 c-179 0 -327
3 -329 8 -2 4 -2 28 1 53 l4 47 56 4 c98 8 92 -32 92 584 0 516 -1 535 -19
553 -18 18 -45 26 -111 33 -23 3 -25 7 -23 53 1 28 2 51 2 53 1 1 223 2 495 2
l493 0 11 -87z"/>
</g>
</svg>
